<?xml version="1.0" encoding="UTF-8"?>
<svg xmlns="http://www.w3.org/2000/svg" version="1.1" width="150" height="150" viewBox="0 0 150 150"><rect x="0" y="0" width="150" height="150" fill="#ffffff"/><g transform="scale(6)"><g transform="translate(0,0)"><path fill-rule="evenodd" d="M8 0L8 4L9 4L9 5L8 5L8 7L9 7L9 6L10 6L10 9L11 9L11 8L12 8L12 9L13 9L13 10L14 10L14 9L15 9L15 11L14 11L14 13L12 13L12 12L13 12L13 11L12 11L12 12L11 12L11 13L10 13L10 14L9 14L9 12L10 12L10 11L11 11L11 10L9 10L9 9L8 9L8 10L6 10L6 11L8 11L8 12L6 12L6 13L7 13L7 14L5 14L5 15L4 15L4 16L3 16L3 14L2 14L2 16L0 16L0 17L2 17L2 16L3 16L3 17L5 17L5 16L6 16L6 17L7 17L7 16L6 16L6 15L8 15L8 14L9 14L9 16L8 16L8 18L9 18L9 17L10 17L10 19L8 19L8 21L9 21L9 23L8 23L8 25L10 25L10 24L9 24L9 23L10 23L10 22L11 22L11 24L12 24L12 25L14 25L14 23L17 23L17 24L19 24L19 25L25 25L25 24L24 24L24 22L25 22L25 19L23 19L23 18L24 18L24 17L23 17L23 15L24 15L24 16L25 16L25 15L24 15L24 14L23 14L23 15L22 15L22 14L21 14L21 13L23 13L23 12L24 12L24 13L25 13L25 11L22 11L22 12L21 12L21 11L20 11L20 10L23 10L23 9L25 9L25 8L21 8L21 9L20 9L20 8L19 8L19 9L20 9L20 10L19 10L19 11L20 11L20 12L18 12L18 11L17 11L17 10L16 10L16 9L17 9L17 5L16 5L16 3L17 3L17 2L15 2L15 1L16 1L16 0L15 0L15 1L14 1L14 0L13 0L13 1L11 1L11 2L12 2L12 5L13 5L13 6L12 6L12 7L11 7L11 3L10 3L10 2L9 2L9 0ZM13 2L13 3L14 3L14 5L15 5L15 7L14 7L14 6L13 6L13 7L12 7L12 8L13 8L13 9L14 9L14 8L15 8L15 9L16 9L16 8L15 8L15 7L16 7L16 5L15 5L15 2ZM0 8L0 9L2 9L2 8ZM4 8L4 9L3 9L3 10L0 10L0 11L2 11L2 12L5 12L5 10L4 10L4 9L7 9L7 8ZM3 10L3 11L4 11L4 10ZM15 11L15 13L14 13L14 14L15 14L15 13L16 13L16 14L18 14L18 15L19 15L19 14L20 14L20 13L21 13L21 12L20 12L20 13L18 13L18 12L17 12L17 13L16 13L16 11ZM0 12L0 14L1 14L1 12ZM11 13L11 14L10 14L10 15L11 15L11 14L12 14L12 13ZM12 15L12 16L10 16L10 17L11 17L11 19L10 19L10 20L12 20L12 21L11 21L11 22L12 22L12 21L13 21L13 22L14 22L14 21L13 21L13 20L14 20L14 18L15 18L15 19L16 19L16 18L15 18L15 17L16 17L16 16L14 16L14 15ZM21 15L21 17L22 17L22 18L23 18L23 17L22 17L22 15ZM12 16L12 17L13 17L13 16ZM17 17L17 20L20 20L20 17ZM18 18L18 19L19 19L19 18ZM12 19L12 20L13 20L13 19ZM21 19L21 21L22 21L22 22L20 22L20 21L19 21L19 22L20 22L20 23L19 23L19 24L20 24L20 23L21 23L21 24L22 24L22 22L23 22L23 21L22 21L22 19ZM15 20L15 22L16 22L16 20ZM17 21L17 23L18 23L18 21ZM12 23L12 24L13 24L13 23ZM0 0L0 7L7 7L7 0ZM1 1L1 6L6 6L6 1ZM2 2L2 5L5 5L5 2ZM18 0L18 7L25 7L25 0ZM19 1L19 6L24 6L24 1ZM20 2L20 5L23 5L23 2ZM0 18L0 25L7 25L7 18ZM1 19L1 24L6 24L6 19ZM2 20L2 23L5 23L5 20Z" fill="#000000"/></g></g></svg>
