<?xml version="1.0" encoding="UTF-8"?>
<svg xmlns="http://www.w3.org/2000/svg" version="1.1" width="150" height="150" viewBox="0 0 150 150"><rect x="0" y="0" width="150" height="150" fill="#ffffff"/><g transform="scale(7.143)"><g transform="translate(0,0)"><path fill-rule="evenodd" d="M8 0L8 1L9 1L9 2L8 2L8 5L11 5L11 4L12 4L12 3L13 3L13 0L12 0L12 3L11 3L11 2L10 2L10 0ZM9 2L9 4L11 4L11 3L10 3L10 2ZM8 6L8 7L9 7L9 8L8 8L8 9L9 9L9 8L10 8L10 9L11 9L11 6L10 6L10 7L9 7L9 6ZM12 6L12 7L13 7L13 6ZM0 8L0 9L1 9L1 12L0 12L0 13L1 13L1 12L2 12L2 13L4 13L4 11L3 11L3 10L5 10L5 12L6 12L6 13L8 13L8 14L9 14L9 10L6 10L6 9L7 9L7 8L6 8L6 9L4 9L4 8ZM13 8L13 9L12 9L12 12L10 12L10 13L12 13L12 12L13 12L13 15L11 15L11 14L10 14L10 15L9 15L9 17L8 17L8 21L9 21L9 18L11 18L11 20L10 20L10 21L13 21L13 19L14 19L14 20L15 20L15 21L16 21L16 20L18 20L18 19L19 19L19 21L20 21L20 20L21 20L21 19L19 19L19 18L20 18L20 17L21 17L21 15L20 15L20 17L18 17L18 16L19 16L19 15L18 15L18 16L17 16L17 17L16 17L16 20L15 20L15 19L14 19L14 17L15 17L15 14L16 14L16 15L17 15L17 14L18 14L18 13L20 13L20 14L21 14L21 12L20 12L20 11L18 11L18 12L16 12L16 13L15 13L15 14L14 14L14 11L17 11L17 10L16 10L16 9L18 9L18 10L19 10L19 8L16 8L16 9L15 9L15 10L13 10L13 9L14 9L14 8ZM20 8L20 10L21 10L21 8ZM10 10L10 11L11 11L11 10ZM2 11L2 12L3 12L3 11ZM6 11L6 12L8 12L8 11ZM16 13L16 14L17 14L17 13ZM10 16L10 17L11 17L11 18L12 18L12 19L13 19L13 17L14 17L14 16L12 16L12 17L11 17L11 16ZM17 17L17 19L18 19L18 17ZM0 0L0 7L7 7L7 0ZM1 1L1 6L6 6L6 1ZM2 2L2 5L5 5L5 2ZM14 0L14 7L21 7L21 0ZM15 1L15 6L20 6L20 1ZM16 2L16 5L19 5L19 2ZM0 14L0 21L7 21L7 14ZM1 15L1 20L6 20L6 15ZM2 16L2 19L5 19L5 16Z" fill="#000000"/></g></g></svg>
