<?xml version="1.0" encoding="UTF-8"?> <svg xmlns="http://www.w3.org/2000/svg" width="64" height="64" viewBox="0 0 64 64" fill="none"><path d="M59.7549 56.0263L53.9106 42.9624C53.4522 41.9311 52.1917 41.4727 51.1603 41.9311C50.1289 42.3894 49.6706 43.65 50.1289 44.6813L54.7128 54.6511H36.9505C42.451 47.89 53.223 33.2218 53.223 24.7418C53.3376 13.2822 43.9408 4 32.4813 4C21.0217 4 11.6249 13.2822 11.6249 24.8563C11.6249 33.451 22.5115 48.0046 27.8974 54.7657H10.3644L14.9482 44.7959C15.4066 43.7646 14.9482 42.504 13.9168 42.0457C12.8855 41.5873 11.6249 42.0456 11.1665 43.077L5.20758 56.0263C4.86379 56.7139 4.97839 57.4014 5.32217 58.089C5.66596 58.7766 6.35353 59.0058 7.0411 59.0058H57.8068C58.4944 59.0058 59.182 58.662 59.6404 58.089C60.0987 57.516 60.0987 56.7139 59.7549 56.0263ZM32.4813 8.24003C41.6489 8.24003 49.0976 15.6887 49.0976 24.8563C49.0976 31.9613 38.3256 46.6295 32.4813 53.6198C26.7515 46.5149 15.8649 31.9613 15.8649 24.8563C15.8649 15.6887 23.3136 8.24003 32.4813 8.24003Z" fill="#00C2FF"></path><path d="M40.1595 24.8564C40.1595 20.6163 36.7216 17.1785 32.4816 17.1785C28.2416 17.1785 24.8037 20.6163 24.8037 24.8564C24.8037 29.0964 28.2416 32.5342 32.4816 32.5342C36.7216 32.5342 40.1595 29.0964 40.1595 24.8564ZM29.0437 24.8564C29.0437 22.9082 30.5335 21.4185 32.4816 21.4185C34.4297 21.4185 35.9195 22.9082 35.9195 24.8564C35.9195 26.8045 34.4297 28.2942 32.4816 28.2942C30.5335 28.2942 29.0437 26.6899 29.0437 24.8564Z" fill="#00C2FF"></path></svg> 