<?xml version="1.0" encoding="UTF-8"?> <svg xmlns="http://www.w3.org/2000/svg" width="64" height="64" viewBox="0 0 64 64" fill="none"><rect x="23" y="54" width="33" height="7" stroke="#6100FF" stroke-width="4"></rect><path d="M24 46.5C24 49 28 51 28.5 53" stroke="#6100FF" stroke-width="4"></path><path d="M37 17C49.5 29 51.5 29.3 51.5 40.5V53.5" stroke="#6100FF" stroke-width="4"></path><circle cx="24" cy="9" r="2" fill="#6100FF"></circle><path d="M32.2583 24.055C32.2877 25.0501 32.1088 25.9997 31.7617 26.8649C30.4009 27.0448 29.2547 27.5087 28.4555 28.5865C28.0229 29.1699 27.7941 29.8135 27.64 30.2741C27.5896 30.4247 27.5446 30.5642 27.5013 30.6982C27.4771 30.7733 27.4533 30.8468 27.4295 30.9196C26.8116 31.1204 26.1539 31.2381 25.4677 31.2583C21.6034 31.3722 18.3783 28.332 18.2644 24.4677C18.1505 20.6033 21.1907 17.3783 25.055 17.2644C28.9194 17.1504 32.1444 20.1907 32.2583 24.055Z" stroke="#6100FF" stroke-width="4"></path><circle cx="24" cy="39" r="2" fill="#6100FF"></circle><path fill-rule="evenodd" clip-rule="evenodd" d="M35 5H13V43H32V47H13H9V43V5V1H13H35H39V5V31L35 27.1523V5Z" fill="#6100FF"></path><path d="M43.5003 38C43.5003 38 33.5003 27.1666 32.0003 27C30.5003 26.8333 26.5003 26 27.5003 32C31.1003 36 32.3336 37.3333 32.5003 37.5C31.667 40 31.3003 45.6 36.5003 48" stroke="#6100FF" stroke-width="4"></path></svg> 