<?xml version="1.0" encoding="UTF-8"?> <svg xmlns="http://www.w3.org/2000/svg" xmlns:v="https://vecta.io/nano" width="48" height="55" fill="#ffa526"><path d="M43.246 54.257l-1.886-.006a1.15 1.15 0 0 1-1.113-.863L36.84 39.98h-2.278l-1.055.02-.5.012c-.92 0-1.36-.28-1.936-.87l-1.18-1.15v6.2c0 .595-.46 1.1-1.06 1.14-.454.037-1.017.143-1.56.245-.77.145-1.5.282-2.135.282a1.15 1.15 0 0 1-1.152-1.142V43.55h-.943v1.587c0 .54-.382 1.007-.916 1.118l-4.06.842c-.62.13-1.23-.265-1.363-.88l-.415-1.852-2.752-10.918-.165-.73-.026.001-.916.016c-.636 0-1.152-.512-1.152-1.142v-8.03l-6.33-1.57a1.15 1.15 0 0 1-.767-.631c-.146-.315-.14-.678.016-.988l.952-1.9.407-.893c.46-1.1.9-1.576 2.3-1.576l.8.017.812.022v-.628c0-.63.516-1.142 1.152-1.142h2.443l-.01-1.675L6.52 9.4a1.14 1.14 0 0 1-.613-1.284c.122-.518.46-1.164 1.004-2.167l.764-1.533V1.142C7.675.5 8.2 0 8.828 0h3.497c.646 0 1.105.365 2.745 2.006a1.15 1.15 0 0 1 1.059-.693h3.456c.325 0 .635.136.853.375s.325.558.293.878l-.275 2.788H21.9V4.7a1.14 1.14 0 0 1 .505-.945 1.16 1.16 0 0 1 1.073-.116l3.257 1.286a1.15 1.15 0 0 1 .606.553l.456.9a1.12 1.12 0 0 1 .12.5l-.008 6.036 2.793 1.335h14.353c.636 0 1.152.5 1.152 1.142l.007.753c.02 1.385-.064 1.638-.9 2.7l-.613.786-4.113 5.473c-.217.3-.56.46-.924.46h-2.92l-.617 1.18-.7 1.425v5.82h1.45l.038-.134.222-.824 1.314-5.3a1.15 1.15 0 0 1 1.119-.87h3.707a1.15 1.15 0 0 1 1.137.958l.892 5.417.4 2.37.508 3.057 1.084 6.585.493 2.832.072.352c.064.292.136.62.153.982l.006.114c0 .63-.516 1.142-1.152 1.142h-2.45v2.426c0 .304-.122.595-.34.8a1.16 1.16 0 0 1-.813.333zm-8.684-16.562h3.176a1.15 1.15 0 0 1 1.117.863l3.24 12.748v-1.76c0-.63.516-1.142 1.152-1.142h2.238l-.478-2.745-1.6-9.627L43 33.616l-.733-4.453h-1.824l-1.1 4.443-.24.9-.243.922a1.15 1.15 0 0 1-1.122.885h-3.494c-.636 0-1.152-.512-1.152-1.142v-7.036c0-.588.338-1.238.986-2.432l.737-1.497a1.15 1.15 0 0 1 1.123-.886h3.13l3.77-5.017.65-.833.404-.54c.012-.046.015-.183.015-.354h-13.35c-.285 0-.675 0-4.35-1.917a1.14 1.14 0 0 1-.616-1.012l.01-6.46-.14-.278-1.27-.502v.1c0 .63-.516 1.142-1.152 1.142h-3.854c-.325 0-.635-.136-.853-.375s-.325-.558-.293-.878l.275-2.788H17.28v1a1.14 1.14 0 0 1-.61 1.008 1.16 1.16 0 0 1-1.184-.059c-.35-.232-.855-.735-1.72-1.605l-1.734-1.666H9.98v2.218c0 .595-.356 1.28-1.04 2.54l-.425.797 6.203 3.03a1.14 1.14 0 0 1 .643 1.018l.02 3.53c.002.304-.12.596-.335.812s-.5.337-.817.337h-2.45v.64c0 .63-.516 1.142-1.152 1.142-.873 0-1.544-.02-2.034-.035l-.728-.017-.112.001-.072.17-.472 1.035-.3.616 5.8 1.44c.513.127.873.584.873 1.108v7.758l.136-.001c1.54 0 1.75 1.033 1.887 1.716l.167.75 2.753 10.92.2.816 2.024-.42v-1.8c0-.63.516-1.142 1.152-1.142h3.247c.636 0 1.152.512 1.152 1.142v1.027l.553-.102.745-.136v-7.93c0-.46.28-.876.707-1.053a1.16 1.16 0 0 1 1.253.239l3.356 3.274.103.002.423-.01 1.133-.022zm-14.977-10.1c-2.54 0-4.608-2.05-4.608-4.57s2.067-4.57 4.608-4.57 4.608 2.05 4.608 4.57-2.067 4.57-4.608 4.57zm0-6.854c-1.27 0-2.304 1.025-2.304 2.285s1.034 2.285 2.304 2.285 2.304-1.025 2.304-2.285-1.034-2.285-2.304-2.285zm14.977 30.842h-33.4A1.15 1.15 0 0 1 0 50.43c0-.632.516-1.142 1.152-1.142h33.4c.636 0 1.152.5 1.152 1.142s-.516 1.142-1.152 1.142zm0 3.427h-33.4C.516 55 0 54.5 0 53.858s.516-1.142 1.152-1.142h33.4c.636 0 1.152.5 1.152 1.142S35.2 55 34.562 55z"></path></svg> 