<?xml version="1.0" encoding="UTF-8"?> <svg xmlns="http://www.w3.org/2000/svg" width="64" height="64" viewBox="0 0 64 64" fill="none"><path d="M32.5001 59.9709C32.266 59.9709 31.9149 59.9709 31.6809 59.8539L6.52128 50.1411C5.58511 49.7901 5 48.9709 5 48.0347V15.7368C5 15.0347 5.35106 14.3325 5.93617 13.8645C6.52128 13.3964 7.34043 13.3964 8.04256 13.6304L33.2022 23.3432C34.1384 23.6943 34.7235 24.5134 34.7235 25.4496V57.7475C34.7235 58.4497 34.3724 59.1518 33.7873 59.6199C33.4362 59.8539 32.9681 59.9709 32.5001 59.9709ZM9.56384 46.3964L30.1596 54.3539V26.9709L9.56384 19.1304V46.3964Z" fill="#005BFF"></path><path d="M32.4998 59.9709C32.0317 59.9709 31.5636 59.8539 31.2125 59.6199C30.6274 59.1518 30.2764 58.4497 30.2764 57.7475V25.4496C30.2764 24.5134 30.8615 23.6943 31.7976 23.3432L56.9573 13.6304C57.6594 13.3964 58.4786 13.3964 59.0637 13.8645C59.6488 14.3325 59.9998 15.0347 59.9998 15.7368V48.0347C59.9998 48.9709 59.4147 49.7901 58.4786 50.1411L33.3189 59.8539C33.0849 59.9709 32.7338 59.9709 32.4998 59.9709ZM34.8402 26.9709V54.3539L55.436 46.3964V19.1304L34.8402 26.9709Z" fill="#005BFF"></path><path d="M32.5001 27.6729C32.266 27.6729 31.9149 27.6729 31.6809 27.5559L6.52128 17.9601C5.58511 17.6091 5 16.7899 5 15.7367C5 14.8006 5.58511 13.8644 6.52128 13.6303L31.6809 5.08777C32.149 4.97074 32.6171 4.97074 33.2022 5.08777L58.3618 13.6303C59.298 13.9814 59.8831 14.8006 59.8831 15.7367C59.8831 16.6729 59.298 17.6091 58.3618 17.9601L33.2022 27.6729C33.0852 27.6729 32.7341 27.6729 32.5001 27.6729ZM14.0107 15.8537L32.5001 22.875L50.9895 15.8537L32.5001 9.65161L14.0107 15.8537Z" fill="#005BFF"></path><path d="M42.0955 44.056C41.3934 44.056 40.6913 43.7049 40.2232 43.1198L37.1806 38.9071C36.4785 37.8539 36.7126 36.4496 37.7658 35.7475C38.8189 35.0453 40.2232 35.2794 40.9253 36.3326L41.7445 37.3858C43.3828 34.5773 46.1913 30.9496 50.4041 29.6623C51.5743 29.3113 52.8615 29.8964 53.3296 31.1836C53.6807 32.3538 53.0956 33.6411 51.8083 34.1092C47.0105 35.6304 44.319 42.6517 44.319 42.6517C43.9679 43.4709 43.2658 44.056 42.4466 44.173C42.3296 43.939 42.2126 44.056 42.0955 44.056Z" fill="#005BFF"></path></svg> 