<?xml version="1.0" encoding="UTF-8"?> <svg xmlns="http://www.w3.org/2000/svg" width="64" height="64" viewBox="0 0 64 64" fill="none"><path d="M4 16H38V46H26" stroke="#FA00FF" stroke-width="4" stroke-miterlimit="10" stroke-linejoin="round"></path><path d="M48 50C50.2091 50 52 48.2091 52 46C52 43.7909 50.2091 42 48 42C45.7909 42 44 43.7909 44 46C44 48.2091 45.7909 50 48 50Z" stroke="#FA00FF" stroke-width="4" stroke-miterlimit="10" stroke-linejoin="round"></path><path d="M16 50C18.2091 50 20 48.2091 20 46C20 43.7909 18.2091 42 16 42C13.7909 42 12 43.7909 12 46C12 48.2091 13.7909 50 16 50Z" stroke="#FA00FF" stroke-width="4" stroke-miterlimit="10" stroke-linejoin="round"></path><path d="M38 46V24H50L58 34V46H52" stroke="#FA00FF" stroke-width="4" stroke-miterlimit="10" stroke-linejoin="round"></path><path d="M8 24H26" stroke="#FA00FF" stroke-width="4" stroke-miterlimit="10" stroke-linejoin="round"></path><path d="M4 32H22" stroke="#FA00FF" stroke-width="4" stroke-miterlimit="10" stroke-linejoin="round"></path></svg> 